<svg xmlns="http://www.w3.org/2000/svg" xmlns:xlink="http://www.w3.org/1999/xlink" width="175" height="42" viewBox="0 0 175 42">
    <defs>
        <path id="prefix__a" d="M0.08 0.033L28.469 0.033 28.469 9.597 0.08 9.597z"/>
    </defs>
    <g fill="none" fill-rule="evenodd" opacity=".9">
        <path fill="#5D6585" d="M40.38 20.876c-.037-1.193-.134-2.327-.323-3.366-.96-.152-1.953-.268-2.921-.409-.147-.602-.278-1.176-.482-1.711-.204-.538-.406-1.062-.612-1.588.328-.368.668-.723 1.01-1.075.26-.266.51-.546.76-.808.086-.09.19-.164.25-.276-.477-.887-.997-1.754-1.566-2.538-.081-.113-.156-.24-.26-.334-.89.362-1.793.709-2.688 1.065-.733-.885-1.56-1.718-2.466-2.434-.067-.053-.16-.123-.167-.161-.005-.029.028-.115.046-.181.254-.908.52-1.802.76-2.691-.892-.662-1.897-1.21-2.957-1.703-.735.7-1.423 1.444-2.15 2.15-1.093-.386-2.213-.743-3.487-.941-.233-.985-.463-1.972-.695-2.958-1.045-.11-2.269-.14-3.356-.048-.277.994-.53 2.01-.816 2.996-1.286.186-2.465.483-3.532.893-.18-.175-.345-.37-.51-.56-.455-.523-.915-1.064-1.363-1.579-.04-.046-.08-.106-.139-.133-1.049.47-2.021 1.065-2.94 1.655-.06.04-.13.072-.175.133.312.939.612 1.89.918 2.834-.106.114-.236.203-.352.304-.795.685-1.583 1.415-2.281 2.187-.02.022-.043.07-.083.067-.88-.422-1.756-.844-2.624-1.275-.104.1-.197.218-.288.333-.644.816-1.216 1.704-1.705 2.672.148.192.335.362.51.551.476.52.98 1.01 1.455 1.531.053.059.118.115.12.152.002.028-.053.132-.083.2-.032.072-.073.143-.093.19-.404.941-.72 1.951-.983 3.005-1.006.127-2.014.253-3.013.39-.23 1.025-.345 2.169-.342 3.432.965.3 1.954.575 2.91.885.01 1.403.251 2.57.52 3.708-.418.28-.852.542-1.28.817-.372.24-.767.476-1.131.704-.052.033-.117.056-.148.114.33 1.112.738 2.168 1.205 3.119.03.061.062.132.112.18 1.003-.174 1.99-.367 2.994-.541.453.796.955 1.543 1.52 2.225.697-.548 1.361-1.14 2.04-1.693.23-.187.46-.37.676-.57-1.36-1.868-2.462-4.048-2.91-6.838-.238-1.478-.142-3.14.111-4.506.19-1.02.487-1.97.852-2.805.128-.29.243-.579.38-.846.549-1.06 1.192-2.046 1.958-2.9.763-.853 1.59-1.627 2.567-2.282.485-.325.976-.63 1.511-.904.793-.406 1.688-.756 2.624-.998.947-.246 2.02-.428 3.18-.428 1.56 0 2.939.231 4.172.628 1.214.39 2.294.924 3.264 1.568 1.922 1.28 3.5 3.005 4.598 5.106.551 1.056 1 2.241 1.289 3.585.287 1.34.389 2.946.213 4.507-.166 1.458-.542 2.719-1.02 3.87-.477 1.148-1.087 2.166-1.78 3.09.888.783 1.794 1.545 2.735 2.273.478-.639.924-1.333 1.325-2.035.027-.046.048-.101.093-.133.953.208 1.895.427 2.846.637.516-1.008.98-2.07 1.317-3.261-.722-.589-1.52-1.139-2.271-1.683-.05-.037-.116-.067-.148-.124.27-1.063.406-2.264.518-3.49.935-.31 1.862-.626 2.782-.95zm.761.552c-.015.03-.058.028-.083.037-.9.316-1.859.63-2.763.951-.07.833-.177 1.633-.334 2.415-.012.057-.032.132-.027.152.012.06.25.198.305.238.72.517 1.461 1.048 2.123 1.617-.415 1.657-1.068 3.069-1.77 4.43-.965-.212-1.921-.432-2.884-.646-.053.034-.07.1-.102.152-.468.772-1.012 1.525-1.558 2.234-.344-.258-.666-.539-1.001-.808-.329-.264-.672-.515-1-.799-.588-.505-1.2-1.043-1.818-1.56-.043-.035-.12-.099-.121-.103 0-.006.093-.126.13-.172.134-.162.282-.34.399-.484.525-.653.964-1.415 1.345-2.197.39-.803.705-1.65.945-2.615.233-.938.39-2.002.39-3.175 0-.771-.076-1.52-.186-2.197-.221-1.36-.626-2.545-1.14-3.594-1.02-2.08-2.524-3.816-4.367-5.069-1.408-.955-3.02-1.668-5.025-2.005-.674-.114-1.381-.162-2.16-.162-1.494 0-2.83.3-3.968.703-2.28.808-4.103 2.17-5.535 3.87-.72.855-1.347 1.825-1.826 2.891-.242.537-.472 1.1-.659 1.712-.185.608-.337 1.257-.436 1.94-.104.72-.129 1.474-.129 2.234 0 .74.12 1.467.26 2.12.554 2.6 1.673 4.624 3.087 6.37-.15.148-.318.276-.483.41-.484.393-.967.811-1.455 1.217-.647.537-1.293 1.077-1.938 1.616-.099-.08-.161-.194-.24-.295-.544-.68-1.098-1.388-1.558-2.168-1.01.18-2.014.37-3.023.552-.041-.028-.05-.081-.073-.124-.155-.288-.316-.609-.464-.922-.505-1.063-.918-2.234-1.262-3.471.037-.06.105-.08.158-.114.797-.5 1.627-1.022 2.43-1.531-.188-.867-.347-1.761-.4-2.767-.96-.305-1.947-.581-2.91-.883-.072-1.732.131-3.33.454-4.717 1.014-.13 2.024-.263 3.04-.39.225-.82.489-1.617.798-2.387.023-.057.067-.11.065-.142-.002-.036-.07-.097-.12-.152-.13-.142-.284-.29-.399-.419-.515-.572-1.08-1.112-1.595-1.673.642-1.354 1.42-2.57 2.328-3.66.126-.154.258-.307.398-.448.873.44 1.77.854 2.642 1.294.1-.055.169-.155.25-.239.396-.404.83-.797 1.252-1.188.17-.156.354-.296.51-.466-.313-.962-.62-1.93-.936-2.89.026-.047.08-.068.12-.096 1.27-.843 2.596-1.683 4.098-2.301.181.18.354.375.52.57.326.389.659.776 1 1.161.17.19.33.391.51.57.838-.292 1.74-.516 2.708-.675.055-.116.078-.246.11-.37.234-.87.482-1.772.715-2.654 1.442-.183 3.163-.138 4.56.057.233.992.47 1.979.696 2.977.935.197 1.832.436 2.661.742.066-.02.103-.088.149-.134.665-.683 1.366-1.37 2.048-2.054.732.32 1.436.667 2.105 1.056.665.386 1.312.787 1.89 1.265-.266.968-.544 1.926-.815 2.89.161.173.354.308.529.466.344.31.663.652.991.99.162.165.313.344.483.503.836-.33 1.675-.658 2.54-.998.065-.026.143-.07.167-.067.053.007.134.151.185.219.86 1.134 1.654 2.38 2.318 3.708-.068.108-.163.196-.25.286-.607.622-1.218 1.275-1.817 1.92.31.772.619 1.546.825 2.425.98.138 1.981.256 2.939.419.299 1.375.445 2.959.454 4.602z"/>
        <path fill="#F6F9FF" d="M40.08 17.523c.19 1.038.287 2.172.325 3.365-.92.325-1.848.641-2.782.951-.112 1.225-.248 2.426-.519 3.49.032.056.098.087.149.123.75.544 1.549 1.095 2.27 1.683-.336 1.19-.8 2.253-1.316 3.262-.95-.21-1.893-.43-2.846-.638-.045.032-.067.087-.093.133-.401.702-.848 1.396-1.325 2.036-.942-.729-1.848-1.49-2.735-2.273.693-.925 1.303-1.943 1.78-3.09.478-1.152.854-2.413 1.02-3.87.176-1.562.073-3.168-.213-4.507-.29-1.345-.738-2.53-1.29-3.585-1.098-2.101-2.676-3.826-4.598-5.107-.969-.644-2.049-1.178-3.263-1.568-1.233-.397-2.612-.628-4.172-.628-1.16 0-2.233.182-3.18.428-.936.243-1.831.592-2.624.998-.535.274-1.026.58-1.51.904-.978.655-1.805 1.43-2.569 2.282-.765.854-1.408 1.84-1.956 2.9-.138.267-.253.556-.38.846-.366.836-.664 1.785-.853 2.805-.253 1.366-.35 3.029-.112 4.507.448 2.789 1.55 4.969 2.911 6.837-.216.2-.447.383-.676.57-.679.553-1.344 1.145-2.04 1.693-.565-.682-1.067-1.429-1.52-2.225-1.005.175-1.99.367-2.995.542-.05-.05-.081-.12-.111-.18-.467-.952-.876-2.008-1.205-3.12.03-.058.096-.08.148-.114.364-.227.76-.464 1.131-.704.427-.275.862-.536 1.28-.817-.269-1.138-.51-2.304-.52-3.708-.957-.31-1.945-.585-2.91-.884-.003-1.264.111-2.408.342-3.433.998-.137 2.007-.263 3.013-.39.263-1.054.58-2.064.983-3.004.02-.048.06-.119.093-.19.03-.069.085-.173.083-.2-.002-.038-.067-.094-.12-.153-.474-.52-.98-1.011-1.456-1.53-.174-.19-.361-.36-.51-.552.49-.967 1.062-1.856 1.706-2.672.09-.115.183-.232.287-.332.869.43 1.746.852 2.624 1.274.04.003.063-.045.084-.067.698-.772 1.486-1.502 2.28-2.187.117-.1.247-.19.352-.304-.306-.945-.605-1.895-.918-2.834.046-.061.115-.093.177-.133.918-.59 1.89-1.186 2.94-1.655.058.027.097.087.138.133.448.515.907 1.056 1.363 1.579.165.19.33.385.51.56 1.067-.41 2.245-.707 3.532-.893.285-.985.54-2.002.816-2.995C20.187.79 21.41.818 22.456.93c.232.985.462 1.973.695 2.957 1.274.198 2.394.556 3.486.94.728-.704 1.416-1.45 2.151-2.148 1.06.492 2.064 1.04 2.957 1.702-.24.89-.506 1.783-.76 2.69-.018.067-.051.154-.046.182.006.038.1.109.166.161.906.716 1.733 1.549 2.467 2.434.894-.356 1.799-.703 2.688-1.065.104.095.179.22.26.334.569.784 1.089 1.65 1.567 2.538-.062.112-.165.187-.25.276-.251.262-.501.542-.76.808-.344.352-.683.707-1.011 1.075.206.526.407 1.05.612 1.588.204.535.335 1.11.482 1.712.968.14 1.962.257 2.92.409"/>
        <g transform="translate(6.155 31.564)">
            <mask id="prefix__b" fill="#fff">
                <use xlink:href="#prefix__a"/>
            </mask>
            <path fill="#FFFFFE" d="M27.235 5.476c.111.029.182.099.278.142-.51 1.02-1.05 2.01-1.566 3.024-.102-.025-.17-.084-.269-.113.507-1.03 1.039-2.035 1.557-3.053" mask="url(#prefix__b)"/>
            <path fill="#5D6585" d="M2.612 8.624c.096-.029.169-.08.259-.115-.51-1.027-1.041-2.032-1.557-3.052h-.02c-.079.057-.188.085-.25.161.52 1.004 1.044 2.005 1.568 3.006zm.63-.276c.087-.05.195-.08.278-.133-.517-1.033-1.021-2.08-1.53-3.12h-.018c-.104.062-.232.1-.316.181.457.895.926 1.812 1.382 2.692.067.128.12.263.204.38zm.75-.324c.042-.017.094-.02.121-.056-.466-1.08-.943-2.151-1.446-3.196-.099.026-.232.099-.343.143.505 1.066 1.025 2.119 1.548 3.166.038-.018.078-.039.12-.057zm.474-.18c.09-.031.17-.073.269-.095-.112-.323-.244-.625-.371-.932-.13-.026-.25-.06-.38-.085.15.38.329.733.482 1.112zm.899-.324c-.062-.18-.123-.362-.204-.523-.126-.013-.228-.051-.343-.076.077.245.185.457.269.694.092-.032.189-.06.278-.095zm.371-.114c.165-.069.363-.103.528-.171-.218-.042-.44-.081-.648-.133.033.108.065.217.12.304zm17.207-.285h-.028c-.112.033-.265.067-.398.095-.077.016-.158.01-.223.047.184.046.348.112.537.153.037-.1.08-.192.112-.295zm.797-.17c-.002-.009-.008-.012-.018-.01-.105.038-.233.053-.344.085-.055.177-.137.327-.185.514.087.034.18.061.27.095.096-.225.187-.454.277-.685zm.844-.2c0-.007-.001-.012-.01-.01-.121.039-.255.067-.388.095-.116.316-.26.603-.362.931.093.026.177.06.26.096.17-.369.337-.738.5-1.113zm-.01-.828c.402-.907.822-1.796 1.215-2.71-1.626-.691-3.406-1.327-5.395-1.76-.488-.105-.986-.193-1.493-.285-.507-.091-1.03-.142-1.576-.209-1.3-.158-2.819-.21-4.238-.152-.825.034-1.59.095-2.345.19-3.014.384-5.62 1.156-7.992 2.188.353.829.77 1.655 1.132 2.462.024.054.038.118.083.162 2.989-1.01 6.385-1.73 10.356-1.73 3.962 0 7.344.758 10.254 1.844zm1.66-.99c-.119-.045-.229-.1-.342-.151-.491 1.066-.973 2.14-1.456 3.214.087.033.17.071.26.105.503-1.065 1.034-2.102 1.538-3.167zm.677.353c-.108-.057-.213-.117-.324-.17-.05.024-.085.133-.12.208-.47.97-.973 1.962-1.428 2.92.101.038.19.089.296.123.522-1.03 1.051-2.052 1.576-3.081zm.602.332c-.096-.043-.167-.113-.278-.142-.518 1.018-1.05 2.023-1.557 3.053.098.029.167.088.269.113.517-1.013 1.056-2.004 1.566-3.024zm-.723-1.235c.578.291 1.146.627 1.679.98-.735 1.417-1.469 2.836-2.216 4.24-1.568-.75-3.21-1.426-5.071-1.874.13-.64.313-1.308.463-1.959-2.148-.58-4.634-.95-7.343-.95-2.72 0-5.195.362-7.398.894.15.673.327 1.319.473 1.997-1.859.448-3.504 1.116-5.062 1.873-.05-.02-.061-.08-.084-.124C1.525 8.1.8 6.715.081 5.353c.697-.48 1.46-.893 2.27-1.256-.023-.112-.089-.208-.138-.314-.145-.31-.292-.646-.436-.97C4.35 1.646 7.127.71 10.417.293c.822-.103 1.655-.2 2.56-.227.145-.005.292-.013.445-.02.786-.034 1.62.007 2.392.038.614.025 1.221.085 1.798.153 3.466.408 6.5 1.38 9.141 2.606-.181.425-.37.842-.565 1.254.191.116.406.187.602.286z" mask="url(#prefix__b)"/>
        </g>
        <path fill="#FFFFFE" d="M32.742 36.68c.11.053.216.113.324.17-.525 1.029-1.054 2.05-1.576 3.08-.107-.033-.195-.084-.296-.123.455-.956.958-1.949 1.427-2.919.036-.074.071-.184.12-.209M32.047 36.346c.113.05.223.106.342.152-.504 1.065-1.035 2.102-1.539 3.167-.088-.034-.172-.072-.26-.105.484-1.073.966-2.148 1.457-3.214"/>
        <path fill="#F6F9FF" d="M31.952 34.777c-.393.914-.813 1.804-1.214 2.71-2.91-1.086-6.292-1.844-10.254-1.844-3.971 0-7.367.72-10.356 1.73-.045-.044-.059-.108-.083-.162-.363-.807-.779-1.633-1.132-2.462 2.372-1.031 4.978-1.804 7.993-2.187.754-.096 1.52-.157 2.345-.19 1.419-.058 2.937-.007 4.237.152.546.066 1.069.117 1.576.208.507.092 1.005.18 1.493.286 1.99.432 3.769 1.068 5.395 1.76"/>
        <path fill="#FFFFFE" d="M30.73 38.305c.008-.002.008.003.01.01-.164.375-.332.744-.502 1.112-.082-.036-.166-.07-.259-.095.102-.328.246-.616.362-.932.133-.028.267-.056.389-.095M29.877 38.505c.01-.002.016.001.018.01-.09.23-.181.46-.278.684-.088-.034-.182-.061-.27-.095.049-.187.13-.337.186-.514.111-.032.239-.047.344-.085M29.07 38.685h.028c-.033.103-.075.196-.112.295-.189-.04-.353-.107-.537-.153.065-.037.146-.03.223-.047.133-.028.286-.062.398-.095"/>
        <path fill="#5D6585" d="M15.58 19.954v-.257c-.108-.003-.241-.03-.324-.029.092.112.187.22.325.286zm.464.247c.016-.143.016-.351 0-.494h-.222c-.013.091-.018.281 0 .399.065.04.14.072.222.095zm.473.114c.022-.193.003-.428.01-.637-.084 0-.163.005-.232.019-.001.195-.016.377-.01.58.071.02.154.026.232.038zm.26-3.118c.005-.041-.046-.036-.065-.049-.399-.25-.761-.617-1.001-1.036-.133-.231-.228-.507-.316-.77-.068-.204-.127-.426-.185-.637-.02-.07-.026-.158-.056-.219-.045-.09-.197-.212-.324-.285-.181-.104-.407-.16-.65-.143-.122.009-.246.028-.333.105.014.098.102.146.158.209.085.097.183.205.25.305.025.037.04.08.065.123.227.4.378.873.584 1.293.332.677.833 1.15 1.873 1.104zm.231 3.118c-.007-.236-.002-.485-.018-.713-.074.02-.163.023-.232.048.006.225-.012.474.01.684.08-.005.164-.009.24-.02zm.455-.086v-.722c0-.006-.001-.011-.009-.01-.057.034-.146.035-.213.058.006.24-.013.506.008.731.074-.016.145-.034.214-.057zm.473-.19c-.007-.221.012-.468-.01-.675-.073.03-.168.038-.222.086v.684c.072.001.155-.068.232-.095zm-1.252-3.347c.35.286.805.509 1.4.505-.022-.04-.068-.049-.102-.067-.271-.152-.493-.327-.705-.533-.64-.62-1.077-1.588-1.13-2.786-.006-.112.015-.24-.01-.352-.016-.072-.126-.193-.195-.266-.232-.248-.546-.448-.927-.475-.068-.005-.136-.002-.157.019.02.117.104.205.157.304.057.103.108.21.158.323.102.232.151.492.222.752.137.497.29 1.01.473 1.464.185.456.465.827.816 1.112zm1.697 3.053c-.026-.16.007-.382-.019-.543-.002-.007-.007-.01-.019-.01-.043.039-.11.053-.166.077.006.203-.013.431.009.618.053-.06.145-.079.195-.142zm-.853-3.405c.356.367.912.658 1.603.6-.378-.187-.617-.386-.87-.647-.478-.49-.798-1.312-.798-2.264 0-.434.045-.858.102-1.245.009-.063.034-.133.028-.171-.006-.031-.056-.086-.093-.143-.164-.247-.353-.445-.594-.58-.13-.074-.331-.158-.49-.105-.044.062-.011.136 0 .2.034.213.073.414.083.628.014.312-.001.629.018.942.035.585.095 1.168.278 1.625.185.461.421.841.733 1.16zm1.613 3.946v-.37c-.088-.018-.158-.055-.213-.104v.265c.067.073.13.152.213.21zm.204-8.1c.033-.102.093-.211.092-.286 0-.053-.041-.133-.073-.209-.095-.222-.214-.374-.353-.514-.183-.184-.435-.385-.741-.419-.007.122-.022.316-.038.476-.043.44-.115.872-.185 1.284-.1.582-.2 1.185-.158 1.787.022.31.113.602.213.866.2.523.5.952.909 1.236.213.148.469.24.778.285-.246-.281-.422-.59-.555-.951-.14-.373-.207-.776-.241-1.274-.034-.478.039-.957.12-1.378.058-.303.14-.62.232-.904zm.176 16.544c.01-.056-.018-.065-.065-.086-.068-.03-.083-.02-.12-.028-.253-.065-.493-.114-.742-.153-.688-.105-1.348-.066-1.993.03-.794.116-1.697.206-2.541.046-.002.062-.018.109-.028.162 1.491.012 3.142-.019 4.655-.02.263 0 .61-.035.769.039.033.015.057.058.065.01zm.046-.276c0-.047.027-.068.028-.115-.127-.07-.277-.09-.426-.132-.436-.124-.963-.233-1.511-.2-.312.018-.6.065-.89.123-.287.058-.573.116-.872.152-.302.038-.641.048-.964.048-.299 0-.58-.033-.835-.057-.01 0-.07-.043-.065.01-.011.048.043.05.065.056.035.012.084.016.111.02.541.072 1.105.075 1.65.019.615-.063 1.208-.185 1.837-.19.515-.004 1.02.077 1.446.17.143.032.284.085.426.096zm.093-7.834c.002-.21-.016-.396-.01-.61-.093.005-.147-.032-.24-.028 0 .168.002.339-.01.495.07.064.154.115.26.143zm.028 7.52c.015-.064.055-.101.074-.162-.453-.227-1.027-.356-1.67-.352-1.445.012-2.67.497-4.161.4.652.135 1.363.127 2.011.038.649-.088 1.23-.278 1.91-.276.685.002 1.268.182 1.836.352zm.213-.362c.01-.05-.047-.058-.074-.075-.455-.31-1.191-.416-1.947-.371-1.37.08-2.63.48-4.089.437.046.035.114.042.168.047.494.051.97-.007 1.418-.066 1.025-.135 2.018-.375 3.142-.304.474.03.892.14 1.234.295.044.02.094.079.148.037zm.186-.247c.033-.035-.021-.062-.038-.076-.028-.023-.077-.041-.102-.056-.192-.118-.421-.223-.658-.286-.535-.144-1.158-.147-1.752-.095-1.329.116-2.518.533-3.931.447.021.074.086.078.148.086.222.027.469.017.687 0 .893-.07 1.713-.203 2.512-.324.553-.084 1.17-.143 1.743-.085.498.05.93.185 1.26.389.048.03.084.087.13 0zm.129-6.722c.014-.235.008-.492.01-.741-.07-.01-.203-.014-.307-.02.006.23-.012.482.01.695.1.018.173.063.287.066zm.074 6.466c.029-.927.094-1.82.121-2.748-.343-.283-.872-.42-1.446-.39-.264.014-.494.056-.733.114-.68.165-1.496.223-2.336.17-.367.446-.72.925-1.084 1.39-.34.428-.692.874-1.011 1.302-.018.024-.073.066-.037.086 1.236.04 2.253-.276 3.384-.41.584-.068 1.215-.11 1.78-.028.273.04.527.109.75.2.206.084.384.195.547.294.012.008.046.06.065.02zm.502-6.4c.014-.269.018-.55.018-.836-.062-.025-.109-.066-.168-.095-.061.028-.104.076-.148.124.005.27-.016.515-.009.79.103.004.194.022.307.018zm.027.371c-.122.002-.242.001-.343-.018-.04.042-.058.102-.083.171-.054.143-.11.3-.15.456-.165.66-.167 1.518-.008 2.196.108.064.207.136.324.19.027-.023.056-.043.093-.057-.107-.468-.17-.99-.139-1.54.03-.517.18-1 .306-1.398zm.305 7.56c.023-.12-.041-.27-.083-.372-.14-.346-.332-.6-.547-.836-.01 0-.01-.007-.018-.01-.006 0-.011.002-.01.01-.191.224-.42.489-.547.818-.042.11-.09.282-.073.38.011.072.1.175.166.21.215.114.786.09.974-.03.052-.032.128-.114.138-.17zm.233-8.7c-.001-.025.016-.073-.02-.086-.08.015-.183.008-.259.029-.007.265-.012.533-.01.808.1-.012.196-.028.289-.048-.006-.226.007-.489 0-.703zm.24-4.489c.172-.524.27-1.221.232-1.91-.035-.66-.197-1.253-.38-1.779-.184-.53-.415-1.027-.788-1.36 0-.005-.001-.01-.01-.009-.368.358-.604.866-.815 1.408-.209.536-.36 1.128-.417 1.768-.06.67.04 1.402.222 1.93.14.404.332.762.65.989.09.064.259.173.37.172.112-.002.26-.109.352-.182.323-.253.452-.618.585-1.027zm.279 5.031v-.694c-.098-.005-.157.03-.25.028v.752c.094-.017.172-.052.25-.086zm.49-.409c.02-.083-.026-.367-.018-.437-.053.042-.131.061-.203.085v.561c.05-.037.203-.122.222-.209zm-.351-.694c.265-.158.493-.432.454-.856-.028-.301-.188-.577-.334-.76-.223-.284-.535-.516-.908-.637-.226-.074-.526-.085-.798-.067-.343.021-.643.12-.862.256-.23.145-.382.322-.547.561-.125.183-.253.398-.25.666.006.549.491.98 1.029.98.167-.001.332-.042.473-.086.136-.042.264-.103.39-.171.215.204.657.334 1.029.257.1-.021.221-.083.324-.143zm.991-5.087c.061-1.167-.237-2.527.112-3.51-.198.002-.33.063-.473.144-.33.186-.616.446-.806.741.229.648.41 1.453.408 2.292-.004 1.088-.314 2.041-.797 2.634.08.022.125.1.213.095.025-.002.095-.048.148-.076.358-.194.635-.491.816-.818.227-.412.35-.927.38-1.502zm.223 5.971v-.457c-.09-.048-.165-.115-.287-.132.01.102.01.283.01.428.085.06.172.12.277.161zm.51.162v-.428c-.103-.014-.175-.062-.269-.086v.448c.088.024.167.057.269.066zm.501.076v-.39c-.078-.024-.175-.029-.26-.048v.41c.079.017.168.023.26.028zm.167-7.855c.032-.275.098-.547.084-.817-.136-.016-.254.033-.381.085-.095.04-.187.088-.269.143-.062.042-.153.105-.231.171-.064.055-.181.162-.195.219-.02.08.002.227.01.342.021.345.04.694.036 1.009-.005.482-.043.893-.139 1.283-.148.599-.38 1.042-.714 1.397-.108.116-.243.203-.37.334.519-.046.909-.313 1.177-.62.274-.311.477-.743.62-1.187.075-.229.127-.485.168-.742.084-.525.141-1.074.204-1.617zm.287 7.836c.02-.105-.011-.234 0-.362h-.213v.38c.078.002.142-.012.213-.018zm.427-.123c.007-.1-.015-.17-.01-.267-.065-.001-.125.005-.176.02.006.1-.012.227.01.313.058-.022.128-.033.176-.066zm.648-.42c-.141.033-.273.076-.417.106.002.07-.004.17.01.199.158-.078.29-.183.407-.304zm.325-.512c-.268-.145-.489-.328-.667-.561-.132-.173-.245-.361-.371-.533-.176-.24-.338-.492-.575-.628-.209-.12-.501-.128-.807-.143-.423-.02-.805-.073-1.196-.123 0-.006-.001-.011-.009-.01-.022.025.008.025.01.03.16.357.423.744.463 1.273.014.19.019.382.102.485.055.068.2.12.315.172.35.157.699.279 1.122.332.583.074 1.302.009 1.613-.294zm-.343-6.295c.048-.094.11-.183.13-.286-.278-.061-.506.019-.752.134-.134.063-.34.154-.38.227-.029.056-.03.184-.046.286-.045.307-.09.61-.139.865-.07.369-.14.772-.268 1.065-.145.329-.293.615-.464.865-.172.252-.394.45-.62.628 0 0-.051.009-.02.028.478-.042.834-.28 1.104-.58.26-.288.526-.64.695-1.008.183-.397.288-.857.408-1.302.06-.224.124-.44.213-.637.045-.1.09-.192.139-.285zm1.122 14.462c-1.506.075-2.591-.5-4.098-.428-.335.016-.665.075-.964.18-.2.07-.402.174-.575.286-.031.02-.115.049-.102.095 0 0 .017.04.028.047.03.022.073-.005.13-.037.32-.186.68-.322 1.066-.4 1.025-.208 2.071.05 2.976.2.475.079 1.015.137 1.539.057zm-.204.627c.036-.004.143.011.12-.076-.02-.034-.073-.012-.092-.01-.63.077-1.205-.092-1.817-.18-.673-.096-1.447-.181-2.16-.095-.431.052-.84.171-1.178.313-.059.026-.183.05-.14.143.043.04.094-.008.13-.02.35-.104.71-.188 1.095-.237.933-.119 1.935.008 2.809.124.377.05.839.089 1.233.038zm.037-.295c.046-.01.129-.003.111-.104-1.38.111-2.466-.41-3.875-.342-.587.027-1.115.193-1.52.418-.056.03-.168.057-.12.123.033.048.055.006.11-.019.668-.29 1.482-.432 2.42-.36.469.034.92.076 1.344.152.207.036.423.081.64.113.283.042.633.077.89.02zm.167.59c-.02-.023-.033-.055-.038-.095-.31.023-.613.039-.918.019-.294-.02-.582-.067-.88-.105-.576-.074-1.24-.134-1.873-.104-.537.025-1.004.108-1.436.228-.063.017-.136.025-.177.066 1.709-.021 3.454.01 5.164.01.052 0 .112.016.158-.02zm.037-1.474c0-.064-.044-.118-.075-.171-.44-.775-.92-1.569-1.362-2.33-.032-.055-.048-.123-.102-.162-.6.068-1.03-.02-1.465-.152-.414-.124-.819-.333-1.307-.36-.611-.035-1.124.082-1.558.285-.072.034-.272.11-.296.18-.026.077-.004.244-.01.361-.034.736-.074 1.38-.101 2.12-.003.067-.03.212-.02.268.004.017.038.056.038.056.04.022.101-.025.148-.056.331-.224.718-.385 1.16-.457.524-.087 1.188-.067 1.705 0 .552.072 1.06.173 1.576.266.522.094 1.059.184 1.67.152zm-.14-12.684c.047-.062.134-.125.112-.219-.07-.036-.149-.017-.222-.009-.357.04-.671.218-.881.438-.077.08-.166.17-.204.247-.029.057-.035.129-.055.19-.066.2-.142.372-.223.542-.11.228-.246.414-.399.617-.257.346-.533.664-.89.885-.049.03-.116.043-.157.095.33.037.608-.02.824-.105.246-.096.466-.227.64-.38.492-.429.739-1.08 1.057-1.673.123-.229.255-.436.398-.628zm.14 13.027c.04-.011.087-.016.083-.077-.766.061-1.592-.115-2.336-.247-.339-.06-.681-.125-1.038-.17-.364-.048-.755-.084-1.15-.058-.656.043-1.17.216-1.594.513.042.068.079.14.148.18.438-.306.954-.527 1.632-.57.77-.047 1.49.093 2.197.22.506.09 1.04.215 1.613.218.142 0 .325.022.445-.01zm.538-13.54c.146.08.274.157.315.342-.38.134-.65.417-.872.723-.449.62-.714 1.417-1.26 1.94-.27.257-.601.45-1.02.57.063.07.15.1.222.152.284.205.476.508.668.828.132.22.301.449.528.59.194.118.501.094.779.16-.031.202-.135.383-.25.543-.106.145-.243.288-.37.409-.26.241-.594.47-.956.599-.193.068-.402.111-.63.142-.241.033-.475.013-.715-.018-.422-.056-.907-.143-1.177-.371-.055-.047-.09-.103-.13-.182-.228.466-.725.658-1.307.761-.324.687-.506 1.886-.25 2.785.463-.17.993-.295 1.613-.256.254.015.485.09.714.161.44.137.855.316 1.382.362.26.022.527.003.806-.038.612 1.055 1.228 2.106 1.835 3.166-.136.321-.427.822-.212 1.227.085.16.243.237.352.39-1.448.023-2.934 0-4.432 0h-1.094c-.128 0-.276-.022-.371 0-.076.017-.148.115-.232.171-.23.153-.556.274-.927.276-.515.001-.844-.22-1.15-.456-1.922.014-3.855.02-5.784.028.09-.198.286-.32.222-.637-.073-.362-.402-.726-.538-.97.04-.079.096-.15.15-.22.152-.2.319-.41.481-.617.637-.82 1.278-1.654 1.928-2.472.642.055 1.23.036 1.799-.038.277-.037.534-.094.797-.152.456-.103.99-.12 1.437 0-.075-.446-.103-.983-.056-1.474.048-.485.179-.92.316-1.284-.425-.115-.873-.273-1.187-.56-.038-.035-.085-.096-.14-.153-.04-.04-.114-.127-.157-.132-.034-.005-.117.032-.185.057-.38.14-.816.308-1.307.342-.354.024-.67-.006-.936-.105-.39-.143-.716-.306-1.011-.551-.185-.153-.349-.31-.501-.542-.049-.074-.174-.265-.148-.371.017-.068.156-.108.24-.152.26-.137.4-.396.539-.647.194-.354.442-.617.713-.865-.44-.108-.782-.351-1.038-.656-.423-.506-.569-1.28-.946-1.845-.096-.144-.18-.282-.305-.39-.123-.106-.265-.175-.408-.285.09-.286.31-.507.621-.6.317-.093.75-.07 1.03.068-.076-.255-.167-.478-.289-.675-.123-.201-.292-.347-.426-.533.163-.208.56-.275.936-.21.427.075.765.293.974.561-.015-.536-.14-.938-.287-1.34-.02-.054-.057-.103-.047-.161.152-.105.385-.09.575-.077.593.04 1.023.339 1.307.685.058-.323.126-.74.148-1.113.014-.226-.062-.407-.083-.589.958-.038 1.58.35 1.975.922.196-.386.423-.765.667-1.112.086-.123.187-.274.278-.352.378.458.704.971.964 1.55.044.01.079-.042.103-.066.43-.442 1.05-.908 1.975-.714-.143.432-.258.89-.288 1.436.061-.01.11-.067.166-.105.27-.18.606-.337 1.048-.352.166-.005.354-.003.464.096-.005.106-.061.196-.093.295-.091.282-.145.602-.204.94.078-.013.145-.062.232-.095.08-.029.17-.052.26-.075.309-.08.597-.124.936-.039.114.029.293.107.297.2.002.065-.166.228-.205.276-.217.268-.368.59-.472.96.064-.01.118-.057.185-.085.382-.16 1.048-.186 1.419.019z"/>
        <path fill="#F6F9FF" d="M26.993 27.474c.004.06-.044.066-.083.077-.12.03-.303.01-.445.01-.573-.004-1.107-.13-1.613-.22-.707-.126-1.427-.266-2.197-.218-.678.042-1.194.263-1.632.57-.07-.04-.106-.113-.148-.18.424-.298.938-.471 1.594-.514.395-.026.786.01 1.15.057.357.046.7.11 1.038.171.744.132 1.57.308 2.336.247M26.882 14.305c.022.094-.065.157-.112.219-.143.192-.275.399-.398.628-.318.592-.565 1.244-1.057 1.674-.174.152-.394.283-.64.38-.216.085-.495.14-.824.104.04-.052.108-.065.157-.095.357-.221.633-.539.89-.885.153-.203.289-.389.399-.617.081-.17.157-.343.223-.542.02-.061.026-.133.055-.19.038-.077.127-.167.204-.247.21-.22.524-.399.88-.438.074-.008.152-.027.223.009"/>
        <path fill="#FFFFFE" d="M21.681 24.707c-.005-.06-.031-.1-.037-.162-.194.023-.336.1-.482.172.022.062.059.111.111.142.122-.065.255-.118.408-.152zm.14.942c-.033-.056-.035-.143-.093-.172-.003.007-.014.018-.02.02-.125.049-.285.065-.37.162.048.039.068.107.13.132.109-.055.232-.097.353-.142zm.12.466c-.013-.073 0-.173-.056-.2-.188.03-.333.102-.473.181.037.064.084.116.139.16.119-.058.237-.117.39-.141zm.083-.97c-.002-.057.007-.128-.01-.171-.314.003-.557.08-.768.19.027.056.06.11.11.142.192-.085.4-.154.668-.161zm.194-.457c.007-.056.025-.103.02-.171-.131.002-.265-.042-.381 0 .015.049.019.108.028.162.115-.001.231-.002.333.01zm.316.913c-.004-.066.012-.114.018-.171-.154-.03-.383-.028-.528.01.013.056.022.117.038.17.162-.018.296-.01.472-.01zm.065.457c.015-.054.007-.133.018-.19-.135-.03-.301-.015-.435.01.016.059.014.137.036.189.13 0 .245-.015.381-.01zm.074-.856c.016-.053.036-.103.037-.171-.125-.034-.272-.045-.407-.067-.027.04-.018.116-.02.18.14.009.265.034.39.058zm.223-.41c.008-.06.04-.097.046-.16-.142-.052-.299-.088-.482-.096-.015.041-.015.14 0 .18.184-.013.292.05.436.077zm.26.914c.021-.056.042-.115.055-.18-.144-.019-.265-.059-.408-.077-.016.057-.03.114-.038.181.136.02.255.055.39.076zm.083.465c.015-.069.043-.126.055-.199-.133-.038-.282-.06-.426-.086-.021.058-.033.126-.038.2.133.032.287.043.409.085zm.092-.855c.017-.053.037-.102.038-.171-.137-.029-.281-.048-.408-.086-.02.053-.04.105-.046.171.13.036.272.063.416.086zm.093-.419c.007-.055.032-.123.019-.17-.122 0-.2-.043-.316-.048-.023.046-.025.114-.046.162.11.018.243.06.343.056zm.39.922c.008-.052.038-.127.027-.17-.144-.023-.275-.06-.426-.077-.012.06-.035.11-.046.172.139.028.307.077.445.075zm.203.486c.003-.074.028-.125.028-.2-.179-.025-.352-.057-.528-.085-.016.066-.04.124-.047.2.182.029.357.064.547.085zm.047-.903c.001-.06.015-.105.009-.172-.15-.02-.313-.027-.454-.057-.02.053-.03.115-.038.18.168.01.307.048.483.049zm.036-.4c.01-.051.013-.108.01-.171-.137-.018-.267-.043-.407-.057-.013.05-.02.107-.02.171.144.015.275.041.417.057zm.492.904c.007-.068-.014-.107-.009-.172-.166-.01-.318-.035-.473-.057-.011.058-.025.113-.028.18.162.018.337.074.51.049zm.13-.857c.002-.064-.004-.121-.019-.17-.113.005-.206-.01-.305-.02-.004.064-.038.095-.037.162.097.033.23.03.361.028zm.065 1.341c.008-.041.009-.107.009-.199-.18-.012-.347-.037-.519-.058-.025.054-.026.132-.037.2.179.024.35.054.547.057zm.213-.893c-.005-.055.01-.132-.01-.172-.229.005-.408-.043-.62-.057-.011.053-.017.11-.029.162.195.043.449.073.66.067zm.408.409c-.018-.07-.04-.138-.084-.18-.123.061-.307.05-.444.008-.011.065-.049.103-.056.172.159.07.42.054.584 0zm.148.59c.014-.06.015-.132.02-.2-.175-.015-.345-.035-.51-.058-.02.063-.047.118-.047.2.175.023.346.05.537.057zm1.28.54c.03.054.073.108.074.172-.61.032-1.147-.058-1.669-.152-.516-.093-1.024-.194-1.576-.266-.517-.067-1.181-.087-1.706 0-.441.072-.828.233-1.159.457-.047.03-.107.078-.148.056 0 0-.034-.039-.037-.056-.01-.056.016-.2.019-.267.027-.74.067-1.385.101-2.12.006-.118-.016-.285.01-.362.024-.07.224-.146.296-.18.434-.203.947-.32 1.558-.286.488.028.893.237 1.307.361.435.132.866.22 1.465.152.054.039.07.107.102.162.442.761.921 1.555 1.362 2.33z"/>
        <path fill="#F6F9FF" d="M26.835 28.587c.005.04.017.072.038.095-.046.035-.106.02-.158.02-1.71 0-3.455-.032-5.164-.01.04-.042.114-.05.177-.067.432-.12.899-.203 1.436-.228.632-.03 1.297.03 1.874.104.297.038.585.085.88.105.304.02.606.004.917-.019M26.817 27.988c.018.101-.065.094-.11.104-.258.058-.608.023-.891-.019-.217-.032-.433-.077-.64-.113-.424-.076-.875-.118-1.344-.152-.938-.072-1.752.07-2.42.36-.055.025-.077.067-.11.02-.048-.067.064-.093.12-.124.405-.225.933-.39 1.52-.418 1.409-.068 2.494.453 3.875.342"/>
        <path fill="#F6F9FF" d="M26.79 28.31c.022.088-.085.073-.121.077-.394.051-.856.013-1.233-.038-.874-.116-1.876-.243-2.81-.124-.383.05-.744.133-1.093.238-.037.011-.088.059-.13.02-.044-.094.08-.118.14-.144.336-.142.746-.261 1.177-.313.713-.086 1.487-.001 2.16.095.612.088 1.187.257 1.817.18.019-.002.073-.024.093.01M22.775 27.332c1.507-.072 2.592.503 4.098.428-.524.08-1.064.022-1.539-.057-.905-.15-1.951-.408-2.976-.2-.386.078-.746.214-1.066.4-.057.032-.1.06-.13.037-.01-.007-.027-.047-.028-.047-.013-.046.071-.075.102-.095.173-.112.376-.215.575-.286.299-.105.63-.164.964-.18M25.881 13.012c-.02.103-.082.192-.13.286-.048.093-.094.185-.139.285-.089.197-.153.413-.213.637-.12.445-.225.905-.408 1.302-.17.367-.435.72-.695 1.009-.27.298-.626.537-1.104.58-.031-.02.02-.03.02-.03.226-.178.448-.375.62-.627.171-.25.319-.536.464-.865.129-.293.199-.696.268-1.065.049-.255.094-.558.139-.865.016-.102.017-.23.047-.286.039-.073.245-.164.38-.227.245-.115.473-.195.751-.134"/>
        <path fill="#5D6585" d="M25.575 26.295c-.004.069-.005.14-.02.2-.19-.007-.361-.034-.536-.057 0-.082.027-.137.046-.2.166.023.336.043.51.057"/>
        <path fill="#F6F9FF" d="M25.427 19.032c.178.233.399.416.667.56-.31.304-1.03.369-1.613.295-.423-.053-.771-.175-1.122-.332-.116-.053-.26-.104-.315-.172-.083-.103-.088-.294-.102-.485-.04-.529-.302-.916-.464-1.274-.001-.004-.03-.004-.009-.028.008-.002.009.003.01.009.39.05.772.103 1.195.123.306.015.598.023.807.143.237.136.399.388.575.628.126.172.24.36.37.533M25.352 20.21c.144-.03.276-.072.417-.104-.117.12-.249.226-.407.304-.014-.03-.008-.13-.01-.2"/>
        <path fill="#5D6585" d="M25.324 25.725c.045.043.066.11.084.18-.163.055-.425.07-.584 0 .007-.068.045-.106.056-.17.137.04.32.052.444-.01"/>
        <path fill="#F6F9FF" d="M25.111 20.258c-.005.098.017.167.01.267-.048.033-.118.044-.176.066-.022-.086-.004-.212-.01-.314.051-.014.11-.02.176-.02"/>
        <path fill="#5D6585" d="M24.99 25.325c.02.04.005.117.01.172-.21.006-.464-.024-.659-.067.012-.052.018-.11.03-.162.21.014.39.062.62.057M24.796 26.191c0 .092-.001.158-.009.2-.198-.004-.368-.034-.547-.058.01-.068.012-.146.037-.2.172.02.34.046.519.058M24.703 24.879c.015.049.02.106.02.17-.132.002-.265.005-.362-.028-.001-.067.033-.098.037-.162.099.01.192.025.305.02"/>
        <path fill="#F6F9FF" d="M24.694 20.286c-.011.128.02.257 0 .362-.07.006-.135.02-.213.019v-.38h.213"/>
        <path fill="#5D6585" d="M24.583 25.734c-.005.065.016.104.009.172-.173.025-.348-.03-.51-.048.003-.068.017-.123.028-.18.155.02.307.046.473.056"/>
        <path fill="#F6F9FF" d="M24.49 11.995c.015.27-.051.542-.083.817-.063.543-.12 1.092-.204 1.617-.041.257-.093.513-.168.742-.143.444-.346.876-.62 1.188-.268.306-.658.573-1.177.619.127-.13.262-.218.37-.334.333-.355.566-.798.714-1.397.096-.39.134-.801.139-1.283.004-.315-.015-.664-.037-1.009-.007-.115-.03-.262-.01-.342.015-.057.132-.164.196-.219.078-.066.169-.129.231-.171.082-.055.174-.103.269-.143.127-.052.245-.1.38-.085M24.24 20.277v.39c-.092-.005-.181-.01-.26-.029v-.409c.085.02.182.024.26.048"/>
        <path fill="#5D6585" d="M24.11 24.83c.003.064 0 .12-.01.172-.142-.016-.273-.042-.416-.057-.001-.064.006-.121.019-.171.14.014.27.039.407.057M24.073 25.23c.006.067-.008.112-.009.172-.176-.001-.315-.039-.483-.048.007-.066.018-.128.038-.18.14.03.304.036.454.056M24.045 26.105c0 .075-.025.126-.028.2-.19-.02-.365-.056-.547-.085.007-.076.031-.134.047-.2.176.028.35.06.528.085M23.841 25.649c.011.043-.019.118-.027.17-.138.002-.306-.047-.445-.075.011-.062.034-.111.046-.172.15.017.282.054.426.077"/>
        <path fill="#F6F9FF" d="M23.739 20.163v.428c-.102-.01-.181-.042-.269-.066v-.448c.094.024.166.072.269.086"/>
        <path fill="#5D6585" d="M23.443 24.727c.013.047-.012.115-.019.17-.1.003-.233-.038-.343-.056.02-.048.023-.116.046-.162.116.005.194.049.316.048M23.369 25.145c-.001.069-.02.118-.038.171-.144-.023-.286-.05-.416-.086.006-.066.025-.118.046-.17.127.037.27.056.408.085M23.294 25.972c-.012.073-.04.13-.055.2-.122-.043-.276-.054-.409-.086.005-.074.017-.142.038-.2.144.027.293.048.426.086"/>
        <path fill="#F6F9FF" d="M23.23 19.972v.457c-.106-.041-.193-.1-.279-.161 0-.145.002-.326-.009-.428.122.017.196.084.287.132"/>
        <path fill="#5D6585" d="M23.211 25.525c-.013.066-.034.125-.055.18-.136-.02-.255-.055-.39-.075.006-.067.021-.124.037-.181.143.018.264.058.408.076"/>
        <path fill="#F6F9FF" d="M23.118 10.949c-.35.982-.05 2.342-.112 3.509-.03.575-.152 1.09-.38 1.502-.18.327-.457.624-.815.818-.053.028-.123.074-.148.076-.088.006-.133-.073-.213-.095.483-.593.793-1.546.797-2.634.003-.839-.18-1.644-.408-2.292.19-.295.477-.555.806-.741.143-.081.275-.142.473-.143"/>
        <path fill="#5D6585" d="M22.942 24.632c-.006.063-.038.1-.046.16-.144-.026-.252-.09-.436-.075-.015-.041-.015-.14 0-.18.183.007.34.043.482.095M22.71 25.03c0 .07-.02.119-.037.172-.125-.024-.25-.05-.39-.057.002-.065-.007-.142.02-.181.135.022.282.033.407.067M22.617 25.867c-.011.058-.003.137-.018.19-.136-.005-.251.01-.38.01-.023-.052-.021-.13-.037-.19.134-.024.3-.04.435-.01M22.552 25.43c-.006.057-.022.105-.018.17-.176 0-.31-.008-.472.01-.016-.053-.025-.114-.038-.17.145-.038.374-.04.528-.01"/>
        <path fill="#F6F9FF" d="M22.469 18.69c.039.423-.189.697-.454.855-.103.06-.223.122-.324.143-.372.077-.814-.053-1.03-.257-.125.068-.253.129-.389.17-.141.045-.306.086-.473.087-.538 0-1.023-.431-1.03-.98-.002-.268.126-.483.251-.666.165-.24.317-.416.547-.561.219-.137.519-.235.862-.256.272-.018.572-.007.798.067.373.12.685.353.908.636.146.184.306.46.334.761M22.348 19.802c-.008.07.038.354.019.437-.02.087-.173.172-.222.21v-.562c.072-.024.15-.043.203-.085"/>
        <path fill="#5D6585" d="M22.238 24.517c.005.068-.013.115-.02.171-.102-.011-.218-.01-.333-.01-.009-.053-.013-.112-.028-.161.116-.042.25.002.38 0M22.015 24.974c.016.043.007.114.01.17-.269.008-.477.077-.668.162-.051-.032-.084-.086-.111-.142.211-.11.454-.187.769-.19M21.885 25.915c.057.027.043.127.056.2-.153.024-.271.083-.39.142-.055-.045-.102-.097-.139-.161.14-.08.285-.151.473-.181"/>
        <path fill="#F6F9FF" d="M21.876 19.954v.694c-.078.034-.156.069-.25.086v-.752c.093.001.152-.033.25-.028M21.83 13.707c.037.689-.061 1.386-.232 1.91-.133.409-.262.774-.585 1.027-.092.073-.24.18-.352.182-.111 0-.28-.108-.37-.172-.318-.227-.51-.585-.65-.989-.183-.528-.282-1.26-.222-1.93.057-.64.208-1.232.417-1.768.21-.542.447-1.05.816-1.408.008-.002.009.004.01.01.372.332.603.829.788 1.36.182.525.344 1.118.38 1.778"/>
        <path fill="#5D6585" d="M21.728 25.477c.058.03.06.116.093.172-.12.045-.244.087-.353.142-.062-.025-.082-.093-.13-.132.085-.097.245-.113.37-.162.006-.002.017-.013.02-.02M21.644 24.545c.006.062.032.102.037.162-.153.034-.286.087-.408.152-.052-.03-.089-.08-.111-.142.146-.071.288-.149.482-.172"/>
        <path fill="#F6F9FF" d="M21.338 20.02c.035.013.018.06.019.086.007.214-.006.477 0 .703-.093.02-.19.036-.288.048-.003-.275.002-.543.01-.808.075-.021.177-.014.259-.029M21.041 28.434c.042.103.106.253.083.372-.01.056-.086.138-.138.17-.188.12-.759.144-.974.03-.066-.035-.155-.138-.166-.21-.017-.098.03-.27.073-.38.127-.33.356-.594.547-.818-.001-.008.004-.01.01-.01.008.003.009.01.018.01.215.236.407.49.547.836M20.476 21.228c.101.02.221.02.343.018-.125.399-.276.881-.306 1.399-.032.549.032 1.07.139 1.54-.037.013-.066.033-.093.056-.117-.054-.216-.126-.324-.19-.159-.678-.157-1.535.009-2.196.039-.155.095-.313.149-.456.025-.069.042-.13.083-.171M20.81 20.04c0 .285-.004.566-.018.836-.113.004-.204-.014-.307-.019-.007-.274.014-.518.01-.79.043-.047.086-.095.147-.123.06.03.106.07.168.095M15.998 26.41c.006-.078-.01-.13-.01-.2h-.62c-.034.038-.013.132-.019.2.22.013.427.005.649 0zm.204-.486c.015-.04.015-.14 0-.18-.183.006-.334-.019-.51-.019.004.07-.026.106-.019.18.171.012.342.025.53.02zm.482-.941c.004-.024.021-.124 0-.171-.107.005-.189-.019-.278-.01-.009.047-.024.131-.018.162.088.016.19.02.296.019zm.065.447c.003-.067-.003-.14-.01-.172-.233 0-.478.01-.685-.018-.004.063-.025.107-.02.18.234.008.479.035.715.01zm.037.913c-.004-.073-.013-.14-.028-.2-.175.02-.362.028-.538.048.006.066.017.128.02.2.187-.01.368-.027.546-.048zm.185-.457c.009-.049-.01-.137-.028-.19-.151.022-.313.035-.472.048.004.059-.01.138.01.18.175.001.318-.034.49-.038zm.446-.922c.002-.067-.016-.111-.02-.171-.135.007-.259.025-.407.019-.02.04-.004.116-.01.17.124.008.3-.007.437-.018zm.092.41c-.005-.063-.018-.116-.027-.172-.156.015-.315.026-.464.048-.016.041.016.108.01.17.162-.013.325-.026.481-.047zm.037.864c-.003-.073-.03-.12-.037-.19-.184.017-.357.046-.528.076.007.065.03.116.027.19.164-.004.371-.044.538-.076zm.14-.456c.002-.076-.034-.111-.038-.181-.148.023-.294.047-.436.076.015.059.02.126.037.18.142-.029.293-.048.436-.075zm.324-.903c-.005-.065-.024-.116-.038-.172-.1.027-.222.031-.324.057.011.052.013.114.028.162.118-.009.227-.027.334-.047zm.176.38c-.026-.05-.017-.135-.065-.162-.131.027-.267.05-.398.076.004.059.022.103.027.162.133-.001.306-.04.436-.077zm.019.865c-.01-.067-.023-.13-.028-.2-.157.014-.305.036-.436.077.009.076.036.134.055.199.123-.04.267-.056.409-.076zm.092-.457c-.017-.058-.01-.14-.046-.18-.132.027-.266.05-.4.076.014.066.033.126.057.18.127-.028.26-.049.39-.076zm.37-.94c-.017-.046-.021-.105-.036-.153-.156.025-.303.057-.445.095-.012.043.028.11.037.162.15-.032.316-.05.445-.104zm.15.456c0-.058-.017-.098-.01-.162-.137-.016-.296.025-.426.048.007.058.023.11.037.161.108-.004.265-.037.399-.047zm0 .932c.007-.063.037-.15.027-.2-.13-.02-.308-.032-.436 0 .013.07.019.146.046.2.12-.027.237-.013.363 0zm.184-.456c.013-.06.032-.109.038-.172-.155-.031-.367-.04-.528-.01.008.056.015.111.018.172.162-.002.322-.001.472.01zm.214-.932c.014-.05.015-.112.027-.162-.111-.029-.24-.03-.37-.02-.007.036.001.131.018.172.117-.015.205.006.325.01zm.27 1.588c.043-.054.099-.095.128-.162-.136-.088-.29-.16-.482-.19-.03.051-.03.132-.046.199.157.026.277.09.4.153zm.12-.457c.04-.05.089-.092.12-.152-.13-.063-.254-.133-.418-.162-.018.06-.052.105-.065.171.138.03.245.093.363.143zm.138-.485c.024-.056.104-.101.103-.152-.214-.112-.455-.193-.77-.2.004.065-.017.104-.01.172.273.011.488.082.677.18zm.093-.447c.03-.054.089-.08.102-.152-.148-.07-.292-.144-.473-.18-.014.054-.036.1-.046.161.152.044.292.1.417.17zm.575-.4c-.027.93-.092 1.822-.12 2.749-.02.04-.054-.012-.066-.02-.163-.1-.341-.21-.547-.294-.223-.091-.477-.16-.75-.2-.565-.082-1.196-.04-1.78.029-1.13.133-2.148.45-3.384.409-.036-.02.019-.062.037-.086.319-.428.672-.874 1.01-1.302.366-.465.718-.944 1.085-1.39.84.053 1.657-.005 2.336-.17.239-.058.469-.1.733-.114.574-.03 1.103.107 1.446.39zM20.225 20.068c0 .25.005.506-.01.741-.113-.003-.186-.048-.286-.066-.022-.213-.004-.466-.01-.694.104.005.237.009.306.019"/>
        <path fill="#F6F9FF" d="M20.05 27.455c.016.014.07.041.037.076-.047.087-.083.03-.13 0-.331-.204-.763-.34-1.26-.39-.575-.057-1.191.002-1.744.086-.8.12-1.62.253-2.512.324-.218.017-.465.027-.687 0-.062-.008-.127-.012-.148-.086 1.413.086 2.602-.331 3.931-.447.594-.052 1.217-.049 1.752.095.237.063.466.168.658.286.025.015.074.033.102.056"/>
        <path fill="#F6F9FF" d="M19.827 27.703c.027.017.084.025.074.075-.054.042-.104-.017-.148-.037-.342-.155-.76-.265-1.234-.295-1.124-.071-2.117.169-3.142.304-.447.06-.924.117-1.418.066-.054-.005-.122-.012-.168-.047 1.46.044 2.72-.356 4.089-.437.756-.045 1.492.06 1.947.37"/>
        <path fill="#5D6585" d="M19.938 24.774c-.013.072-.071.098-.102.152-.125-.07-.265-.127-.417-.17.01-.061.032-.108.046-.163.181.037.325.11.473.18M19.846 25.221c.001.05-.08.096-.103.152-.189-.098-.404-.169-.677-.18-.007-.068.014-.107.01-.172.315.007.556.088.77.2"/>
        <path fill="#F6F9FF" d="M19.762 27.978c-.019.06-.06.098-.074.162-.568-.17-1.151-.35-1.836-.352-.68-.002-1.261.188-1.91.276-.648.089-1.36.097-2.011-.038 1.49.097 2.716-.388 4.162-.4.642-.004 1.216.125 1.669.352M19.65 20.01c-.006.214.012.4.01.61-.106-.028-.19-.079-.26-.143.012-.156.01-.327.01-.495.093-.004.147.033.24.029"/>
        <path fill="#5D6585" d="M19.725 25.706c-.031.06-.08.102-.12.152-.118-.05-.225-.112-.363-.143.013-.066.047-.11.065-.171.164.03.288.099.418.162"/>
        <path fill="#F6F9FF" d="M19.595 28.34c0 .046-.028.067-.028.114-.142-.01-.283-.064-.426-.095-.426-.094-.931-.175-1.446-.172-.63.006-1.222.128-1.836.19-.546.057-1.11.054-1.65-.018-.028-.004-.077-.008-.112-.02-.022-.006-.076-.008-.065-.057-.005-.052.055-.01.065-.009.254.024.536.057.835.057.323 0 .662-.01.964-.048.3-.036.585-.094.871-.152.292-.058.58-.105.89-.123.549-.033 1.076.076 1.512.2.149.042.299.063.426.132"/>
        <path fill="#F6F9FF" d="M19.456 28.644c.047.02.074.03.065.086-.008.048-.032.005-.065-.01-.16-.074-.506-.038-.77-.038-1.512 0-3.163.03-4.654.02.01-.054.026-.101.028-.163.844.16 1.747.07 2.54-.047.646-.095 1.306-.134 1.994-.03.249.04.489.089.741.154.038.009.053-.002.12.028"/>
        <path fill="#5D6585" d="M19.613 26.153c-.03.067-.085.108-.129.162-.122-.063-.242-.127-.399-.153.015-.067.017-.148.046-.2.193.032.346.103.482.19"/>
        <path fill="#F6F9FF" d="M19.437 11.9c.001.075-.06.184-.092.285-.092.283-.174.6-.232.904-.081.421-.154.9-.12 1.378.034.498.101.9.24 1.274.134.36.31.67.556.951-.31-.045-.565-.137-.778-.285-.408-.284-.71-.713-.909-1.236-.1-.264-.191-.557-.213-.866-.041-.602.058-1.205.158-1.787.07-.412.142-.843.185-1.284.016-.16.03-.354.038-.476.306.034.558.235.74.42.14.139.26.29.354.513.032.076.073.156.073.209"/>
        <path fill="#5D6585" d="M19.242 24.565c-.012.05-.013.112-.027.162-.12-.004-.208-.025-.325-.01-.017-.041-.025-.136-.018-.172.13-.01.259-.009.37.02"/>
        <path fill="#F6F9FF" d="M19.14 19.916v.37c-.082-.057-.145-.136-.212-.209v-.265c.055.05.125.086.213.104M19.131 16.94c-.691.058-1.247-.233-1.603-.6-.312-.319-.548-.699-.733-1.16-.183-.457-.243-1.04-.278-1.625-.02-.313-.004-.63-.018-.942-.01-.214-.049-.415-.084-.628-.01-.064-.043-.138 0-.2.16-.053.36.031.491.105.241.135.43.333.594.58.037.057.087.112.093.143.006.038-.02.108-.028.17-.057.388-.102.812-.102 1.246 0 .952.32 1.773.797 2.264.254.26.493.46.871.646"/>
        <path fill="#5D6585" d="M19.039 25.487c-.006.063-.025.113-.038.172-.15-.011-.31-.012-.472-.01-.003-.06-.01-.116-.018-.172.161-.03.373-.021.528.01"/>
        <path fill="#F6F9FF" d="M18.89 17.567c.034.008-.019.029-.018.029-.196.198-.31.512-.464.788-.09.165-.123.344-.273.45-.324.23-.777.396-1.25.476-.55.093-1.258.113-1.879-.084.065-.03.165-.077.224-.148.34-.395.525-.98.99-1.273.317-.2.803-.228 1.29-.257.472-.029.913.02 1.38.02"/>
        <path fill="#5D6585" d="M18.844 25.915c.01.05-.02.137-.027.2-.126-.013-.242-.027-.363 0-.027-.054-.033-.13-.046-.2.128-.032.306-.02.436 0M18.807 25.021c-.007.064.01.104.01.162-.134.01-.29.043-.399.047-.014-.052-.03-.103-.037-.161.13-.023.29-.064.426-.048M18.631 24.574c.015.048.02.107.037.153-.129.054-.294.072-.445.104-.009-.053-.049-.12-.037-.162.142-.038.29-.07.445-.095"/>
        <path fill="#F6F9FF" d="M18.362 19.202c.026.16-.007.383.019.543-.05.063-.142.083-.195.142-.022-.187-.003-.415-.009-.618.056-.024.123-.038.166-.076.012-.001.017.002.02.01"/>
        <path fill="#5D6585" d="M18.25 25.487c.036.04.03.122.047.18-.129.027-.262.048-.389.077-.024-.055-.043-.115-.056-.18.133-.027.267-.05.399-.077M18.177 25.924c.005.07.019.133.028.2-.142.02-.286.036-.409.076-.019-.065-.046-.123-.055-.2.13-.04.279-.062.436-.076M18.12 25.097c.05.027.04.112.066.161-.13.037-.303.076-.436.077-.005-.059-.023-.103-.027-.162.131-.026.267-.049.398-.076"/>
        <path fill="#F6F9FF" d="M18.084 17.197c-.595.004-1.05-.22-1.4-.505-.35-.285-.631-.656-.816-1.112-.183-.454-.336-.967-.473-1.464-.071-.26-.12-.52-.222-.752-.05-.113-.101-.22-.158-.323-.053-.1-.137-.187-.157-.304.021-.02.089-.024.157-.02.38.028.695.228.927.476.069.073.179.194.195.266.025.113.004.24.01.352.053 1.198.49 2.167 1.13 2.786.212.206.434.38.705.533.034.018.08.027.102.067"/>
        <path fill="#5D6585" d="M17.972 24.707c.014.056.033.107.038.172-.107.02-.216.038-.334.047-.015-.048-.017-.11-.028-.162.102-.026.224-.03.324-.057"/>
        <path fill="#F6F9FF" d="M17.926 19.364c.022.207.003.454.01.675-.077.027-.16.096-.232.095v-.684c.054-.048.149-.056.222-.086"/>
        <path fill="#5D6585" d="M17.648 25.6c.004.071.04.106.037.182-.143.027-.294.046-.436.076-.017-.055-.022-.122-.037-.18.142-.03.288-.054.436-.077M17.51 26.048c.006.07.033.117.036.19-.167.032-.374.072-.538.077.002-.075-.02-.126-.027-.19.171-.03.344-.06.528-.077M17.482 25.202c.01.056.022.109.027.171-.156.021-.32.034-.482.047.007-.062-.025-.129-.01-.17.15-.022.309-.033.465-.048"/>
        <path fill="#F6F9FF" d="M17.463 19.507v.722c-.069.023-.14.041-.214.057-.021-.225-.002-.49-.008-.731.067-.023.156-.024.213-.057.008-.002.009.003.009.009"/>
        <path fill="#5D6585" d="M17.398 24.793c.003.06.021.104.019.171-.136.01-.313.026-.436.019.005-.055-.01-.13.01-.171.147.006.271-.012.407-.02"/>
        <path fill="#F6F9FF" d="M16.99 19.602c.016.228.01.477.018.713-.076.01-.16.014-.24.02-.022-.21-.004-.46-.01-.685.07-.025.158-.028.232-.048"/>
        <path fill="#5D6585" d="M16.943 25.696c.019.053.037.141.028.19-.172.004-.315.04-.49.038-.02-.042-.006-.121-.01-.18.16-.013.32-.026.472-.048"/>
        <path fill="#F6F9FF" d="M16.712 17.148c.019.013.07.008.065.049-1.04.046-1.541-.427-1.873-1.104-.206-.42-.357-.893-.584-1.293-.024-.042-.04-.086-.065-.123-.067-.1-.165-.208-.25-.305-.056-.063-.144-.11-.158-.21.087-.076.211-.095.334-.104.242-.017.468.039.649.143.127.073.279.195.324.285.03.06.036.149.056.22.058.21.117.432.185.636.088.263.183.539.316.77.24.42.602.786 1 1.036"/>
        <path fill="#5D6585" d="M16.758 26.143c.015.06.024.127.028.2-.178.02-.36.038-.547.047-.002-.07-.013-.133-.019-.199.176-.02.363-.028.538-.048M16.74 25.258c.006.032.012.105.01.172-.237.025-.482-.002-.715-.01-.006-.073.015-.117.019-.18.207.027.452.018.686.018M16.684 24.812c.021.047.004.147 0 .17-.106.003-.208-.002-.296-.018-.006-.031.01-.115.018-.162.09-.009.17.015.278.01"/>
        <path fill="#F6F9FF" d="M16.526 19.678c-.006.21.013.444-.01.637-.077-.012-.16-.019-.23-.038-.007-.203.008-.385.009-.58.07-.014.148-.019.231-.019"/>
        <path fill="#5D6585" d="M16.202 25.744c.015.04.015.14 0 .18-.187.006-.358-.007-.529-.018-.007-.075.023-.11.02-.18.175 0 .326.024.51.018"/>
        <path fill="#F6F9FF" d="M16.044 19.707c.016.143.016.35 0 .494-.082-.023-.157-.054-.222-.095-.018-.118-.013-.308 0-.4h.222"/>
        <path fill="#5D6585" d="M15.998 26.41c-.222.005-.43.013-.649 0 .006-.068-.015-.162.018-.2h.622c-.002.07.015.122.009.2z"/>
        <path fill="#F6F9FF" d="M15.58 19.697v.257c-.137-.065-.232-.174-.324-.286.083-.001.216.026.325.029"/>
        <path fill="#FFFFFE" d="M12.419 38.799c-.165.068-.363.102-.528.172-.055-.088-.087-.197-.12-.304.208.051.43.09.648.132M11.316 38.562c.08.16.142.343.204.522-.09.036-.186.064-.278.096-.084-.238-.192-.45-.269-.695.115.025.217.063.343.077M10.89 39.313c-.1.022-.179.064-.269.095-.153-.379-.331-.733-.482-1.112.13.026.25.06.38.085.127.307.259.61.37.932M10.268 39.532c-.027.036-.079.04-.12.057-.043.017-.083.038-.12.056-.524-1.047-1.044-2.1-1.55-3.166.112-.044.245-.117.344-.143.503 1.045.98 2.115 1.446 3.196M9.675 39.779c-.083.054-.191.083-.278.133-.084-.117-.137-.252-.204-.38-.456-.88-.925-1.796-1.382-2.692.084-.082.212-.119.316-.18h.018c.509 1.04 1.013 2.087 1.53 3.119M9.026 40.073c-.09.035-.163.086-.26.115-.523-1-1.046-2.002-1.567-3.005.062-.077.171-.105.25-.161h.02c.516 1.02 1.047 2.024 1.557 3.051"/>
        <path fill="#5D6585" d="M14.531 6.22L14.65 6.169 14.77 6.118 15.246 7.297 15.127 7.348 15.007 7.399 14.531 6.22M15.665 7.13L15.551 7.17 15.436 7.211 15.029 6.005 15.157 5.96 15.286 5.914 16.045 6.593 15.759 5.746 15.873 5.705 15.988 5.664 16.395 6.87 16.151 6.957 15.371 6.259 15.665 7.13M16.808 6.527l.213-.055c.102-.027.17-.083.204-.167.033-.085.032-.198-.003-.34-.032-.129-.08-.22-.143-.271-.064-.052-.143-.065-.24-.04l-.233.06.202.813zm-.506-.96l.125-.032.391-.102c.166-.043.305-.026.416.051.11.078.19.213.238.405.052.212.047.385-.015.519s-.18.223-.353.268l-.37.097-.126.032-.306-1.238zM17.552 5.263L17.679 5.238 17.807 5.213 18.042 6.466 17.915 6.491 17.787 6.517 17.552 5.263M18.503 5.903l.328-.045-.23-.486-.098.531zm-.085-.793l.15-.02.15-.02.6 1.205-.137.019-.136.019-.117-.246-.469.064-.047.268-.133.018-.133.018.272-1.325zM19.673 6.256L19.552 6.262 19.43 6.268 19.369 4.994 19.505 4.988 19.641 4.981 20.183 5.85 20.14 4.955 20.261 4.949 20.382 4.943 20.444 6.217 20.314 6.224 20.185 6.23 19.629 5.338 19.673 6.256M21.129 4.955L21.259 4.96 21.389 4.965 21.343 6.24 21.213 6.235 21.082 6.23 21.129 4.955M21.791 6.267L21.67 6.255 21.549 6.243 21.667 4.973 21.803 4.987 21.939 5 22.352 5.94 22.435 5.048 22.556 5.06 22.677 5.072 22.559 6.342 22.43 6.329 22.301 6.317 21.876 5.352 21.791 6.267M23.598 5.618c.006-.061-.011-.113-.052-.156-.04-.044-.098-.073-.172-.086-.065-.012-.119-.007-.16.016-.042.023-.067.06-.076.112-.007.038.007.07.042.098.034.027.11.066.228.117.17.073.281.142.332.207.05.064.066.155.046.272-.02.118-.082.203-.185.256-.102.053-.23.065-.385.037-.155-.029-.27-.087-.344-.177-.074-.09-.103-.202-.085-.339l.246.045c-.009.067.006.123.044.166.038.044.097.074.176.088.082.015.148.013.198-.006.05-.018.08-.052.088-.1.009-.047-.002-.084-.031-.113-.029-.028-.093-.063-.194-.107-.187-.08-.308-.151-.364-.215-.056-.063-.075-.15-.056-.258.021-.122.081-.211.18-.267.098-.056.22-.07.367-.043.137.025.242.082.315.172.073.09.104.198.091.326l-.249-.045M24.394 5.639L24.03 5.543 24.057 5.433 24.085 5.323 25.065 5.581 25.038 5.69 25.011 5.801 24.646 5.705 24.392 6.722 24.267 6.689 24.14 6.655 24.394 5.639M25.22 5.636L25.468 5.716 25.098 6.934 24.85 6.855 25.22 5.636M25.906 6.107L25.553 5.974 25.592 5.868 25.63 5.761 26.578 6.12 26.502 6.333 26.149 6.2 25.795 7.185 25.674 7.139 25.551 7.092 25.906 6.107M27.357 7.355c-.074.166-.163.268-.268.308-.104.04-.237.021-.399-.055-.154-.073-.252-.165-.292-.277-.04-.112-.025-.247.046-.407l.324-.723.118.055.118.056-.328.731c-.037.083-.047.154-.029.213.018.06.064.106.138.141.08.037.144.045.195.023.051-.022.097-.078.137-.169l.328-.73.118.055.118.055-.324.724M28.086 7.114L27.759 6.926 27.812 6.828 27.866 6.729 28.749 7.234 28.695 7.332 28.642 7.431 28.314 7.244 27.816 8.161 27.702 8.096 27.588 8.031 28.086 7.114M28.237 8.409L28.921 7.344 29.687 7.86 29.626 7.954 29.565 8.049 29.017 7.679 28.871 7.905 29.381 8.249 29.322 8.34 29.263 8.433 28.754 8.089 28.575 8.367 29.148 8.753 29.088 8.848 29.027 8.942 28.237 8.409M30.327 9.604c.095-.02.186-.083.272-.19.088-.108.135-.212.139-.313.004-.1-.035-.186-.117-.256-.08-.07-.17-.093-.265-.072-.096.022-.188.087-.276.196-.087.106-.132.209-.135.308-.003.099.036.183.118.253.081.07.17.094.264.074zM29.7 9.28c-.008-.163.053-.323.18-.48.13-.16.275-.25.435-.274.159-.023.309.026.449.146.141.121.215.264.22.429.007.164-.056.327-.186.487-.128.156-.27.245-.428.266-.157.022-.306-.028-.448-.15-.14-.12-.214-.261-.222-.424zM30.522 10.194L31.394 9.283 32.026 9.92 31.949 10 31.871 10.082 31.425 9.632 31.227 9.838 31.616 10.23 31.541 10.308 31.466 10.387 31.077 9.995 30.708 10.381 30.615 10.288 30.522 10.194M32.505 10.815L32.264 10.518 32.349 10.446 32.434 10.373 33.081 11.171 32.996 11.244 32.911 11.316 32.671 11.02 31.884 11.691 31.801 11.589 31.718 11.486 32.505 10.815M32.191 12.08L33.204 11.338 33.737 12.103 33.647 12.169 33.557 12.235 33.175 11.686 32.961 11.843 33.315 12.351 33.228 12.415 33.14 12.479 32.786 11.971 32.522 12.164 32.92 12.737 32.831 12.803 32.74 12.869 32.191 12.08M33.741 13.697c-.13.062-.258.073-.38.033-.122-.04-.222-.127-.3-.258-.09-.154-.11-.307-.064-.459.047-.152.156-.28.326-.386.174-.107.339-.147.494-.12.155.029.278.12.368.273.076.13.105.258.086.386-.018.127-.081.235-.19.322l-.133-.228c.053-.043.084-.097.092-.161.009-.065-.007-.13-.046-.197-.05-.085-.122-.132-.216-.14-.094-.007-.2.026-.316.098-.115.07-.19.15-.226.237-.037.088-.03.174.02.26.04.067.09.11.154.13.063.02.13.015.198-.018l.133.228M34.557 13.505L34.614 13.624 34.672 13.744 34.253 13.955 34.468 14.404 34.887 14.193 34.944 14.312 35.001 14.432 33.884 14.995 33.769 14.756 34.276 14.501 34.061 14.052 33.554 14.307 33.497 14.188 33.44 14.068 34.557 13.505M34.059 15.429L33.971 15.197 35.13 14.733 35.229 14.994 34.597 15.796 35.41 15.471 35.454 15.587 35.499 15.703 34.339 16.167 34.292 16.043 34.245 15.919 34.895 15.095 34.059 15.429M34.922 17.073c.09.038.2.037.329-.002.132-.04.226-.1.284-.18.058-.082.073-.175.043-.28-.03-.104-.09-.174-.182-.21-.091-.037-.203-.036-.335.003-.13.04-.222.099-.278.18-.056.08-.07.172-.04.277.03.104.09.175.18.212zm-.345-.628c.082-.14.219-.239.41-.296.195-.058.365-.051.51.02.144.073.242.199.293.379.052.181.035.342-.05.482-.084.14-.223.24-.418.297-.192.057-.358.05-.5-.022-.143-.073-.24-.2-.291-.38-.052-.181-.036-.34.046-.48zM34.764 17.676L35.983 17.42 36.009 17.55 36.035 17.681 35.033 17.892 35.157 18.514 35.049 18.537 34.94 18.56 34.764 17.676M35.356 19.435c.083.051.192.068.326.051.136-.017.24-.061.31-.132.07-.071.098-.16.085-.269-.013-.107-.062-.186-.147-.238-.085-.05-.195-.067-.332-.05-.134.017-.235.06-.303.131-.068.07-.096.16-.083.268.014.108.062.188.144.239zm-.243-.677c.103-.125.254-.2.452-.225.201-.025.368.009.5.103.131.095.209.235.231.421.023.188-.018.343-.124.468-.105.124-.258.2-.46.225-.198.026-.361-.009-.49-.104-.13-.094-.206-.235-.229-.422-.022-.186.018-.342.12-.466zM35.096 20.55c-.006-.186.047-.335.16-.449.113-.113.27-.173.469-.18.203-.007.366.044.489.153.123.11.188.26.194.454.005.155-.028.284-.1.387-.073.103-.173.165-.301.187l-.009-.267c.054-.009.1-.042.14-.099.039-.057.057-.12.055-.186-.004-.116-.046-.206-.126-.269-.08-.062-.19-.091-.329-.086-.14.005-.247.04-.319.105-.071.066-.105.159-.1.28h-.001c.004.102.044.182.123.237.045.03.097.052.156.065h.002l-.01-.3.214-.008.018.535-.67.024-.006-.178.16-.032-.021-.015c-.12-.086-.183-.205-.188-.359v.001M35.598 21.625L36.392 21.214 36.379 21.531 35.829 21.773 35.828 21.773 36.357 22.046 36.351 22.197 36.345 22.348 35.592 21.892 35.119 21.871 35.13 21.604 35.598 21.625M35.753 23.243l-.046.3c-.01.066-.005.117.014.154.019.036.053.058.101.066.042.006.076-.006.102-.037.026-.03.044-.08.054-.15l.045-.29-.27-.043zm-.535-.086l-.048.32c-.01.068-.004.122.02.16.023.04.065.064.123.073.052.008.093-.003.123-.034.03-.031.051-.082.062-.152l.048-.315-.328-.052zm1.054-.09l-.092.61c-.019.123-.06.213-.126.273-.065.06-.147.083-.244.067-.102-.016-.174-.067-.215-.153-.007-.014-.013-.03-.018-.046-.015.028-.033.052-.052.073-.066.072-.151.1-.255.083-.126-.02-.215-.076-.269-.166-.054-.09-.069-.212-.045-.365l.067-.447.02-.126 1.23.196zM34.955 24.944c.06.079.155.134.286.167.134.034.245.03.335-.01.09-.041.148-.115.173-.22.025-.106.007-.198-.054-.277-.061-.078-.159-.134-.293-.168-.13-.033-.24-.03-.328.012-.088.04-.145.114-.17.22-.025.106-.008.198.051.276zm.01-.721c.138-.08.304-.094.498-.046.197.05.34.143.43.28.09.136.114.295.07.477-.044.184-.136.315-.278.393-.141.078-.31.092-.507.042-.194-.049-.334-.14-.422-.276-.088-.136-.11-.295-.066-.479.044-.182.135-.313.274-.391zM34.454 25.615L34.493 25.498 34.533 25.38 35.709 25.801 35.584 26.169 34.577 26.056 34.577 26.056 35.435 26.607 35.311 26.97 34.136 26.55 34.216 26.315 35.204 26.669 34.292 26.089 34.377 25.841 35.464 25.976 35.464 25.976 34.454 25.615M34.636 27.31l-.123.277c-.027.06-.036.111-.027.152.008.04.035.07.08.091.038.018.074.016.107-.007s.064-.066.092-.13l.119-.267-.248-.116zm-.493-.23l-.13.295c-.029.063-.037.117-.024.16.013.045.046.08.1.105.047.022.09.022.128 0 .037-.021.07-.064.1-.129l.128-.29-.302-.141zm1.039.205l-.051.116-.199.446c-.05.113-.114.189-.192.228-.079.04-.163.039-.253-.003-.094-.044-.15-.113-.167-.207-.003-.015-.004-.031-.005-.049-.022.023-.045.041-.069.056-.083.05-.172.054-.268.01-.115-.055-.187-.132-.215-.234-.028-.102-.01-.223.053-.365l.182-.41.052-.117 1.132.529zM33.807 28.371l-.16.296.517.101v.001l-.357-.398zm.67.404l-.074.135-.073.135-1.3-.227.067-.123.067-.124.261.051.23-.422-.181-.2.065-.12.065-.12.872 1.015zM33.249 29.341L34.136 29.403 34.051 29.535 33.967 29.669 33.375 29.589 33.373 29.588 33.692 30.1 33.612 30.227 33.531 30.353 33.111 29.567 32.714 29.302 32.857 29.078 33.249 29.341M11.137 7.765L10.996 7.573 10.795 7.729 10.936 7.921 11.137 7.765M5.55 20.392c.056.064.097.119.126.163.082.126.123.237.125.331 0 .045-.009.082-.027.113-.022.037-.053.057-.093.057-.088.002-.133-.066-.136-.203 0-.055.005-.098.016-.13l-.155.042c-.009.059-.013.107-.013.144.001.048.007.093.018.136.003.016.009.033.016.05.007.02-.004.04-.034.063-.03.023-.057.035-.08.035-.044 0-.068-.034-.069-.103l-.006-.4-.289.005-.004-.294.606-.01zm-.073 1.959c.023.016.043.032.056.048.043.048.069.1.078.154.018.113-.032.18-.152.2l-.346.06-.036-.222-.024-.184.424-.056zm-.236-5.875c-.082.002-.138-.002-.17-.013-.05-.018-.085-.048-.103-.09-.018-.042-.018-.09 0-.14.04-.121.144-.189.308-.205.054-.005.132 0 .235.014l-.12.414c-.043.011-.1.02-.15.02zm.427-.378l1.045.373.071-.21-1.044-.374.053-.156-.157-.056-.057.166-.162-.015c-.312.001-.513.133-.602.395-.033.099-.036.185-.008.26.031.08.094.137.187.17.044.016.1.024.168.024.054 0 .135-.01.179-.025-.117.315-.44 1.705-.497 2.406-.01.008-.03.016-.044.02-.04.01-.084.012-.134.007-.159-.017-.23-.116-.21-.296.012-.128.106-.25.254-.4.062-.061.26-.228.37-.293l.023-.228c-.264.152-.457.332-.616.508-.117.13-.178.263-.191.39-.032.317.078.489.33.515.044.005.092.002.142-.008.017-.005.036-.01.056-.018l-.029.395-.629.46.116.177s.512-.49.505-.49c-.03.304-.008 1.528.024 1.937l-.572.38.113.193.47-.464.015.17-.368.445.177.083.205-.408s.09.743.161 1.095c0-.002.164-.028.164-.028l-.027-.168.374-.064c.082-.014.146-.059.193-.133.047-.075.063-.156.049-.242l-.005-.031.319.383.112-.163-.51-.456.468-.062-.028-.222-1.096.145-.032-.294 1.1-.11-.02-.223s-1.1.112-1.101.109c-.02-.256-.02-.767-.02-.767l.128-.002.005.337c.001.051.02.094.056.127.036.033.08.05.13.048.07 0 .135-.034.193-.099.02-.022.042-.053.064-.094.015.019.03.033.042.042.037.026.08.038.13.037.087-.001.156-.047.207-.137.042-.075.062-.16.06-.257-.001-.114-.034-.235-.099-.364-.022-.044-.053-.094-.094-.15l.276-.005-.003-.22-1.106.018.011-.343 1.103.064.012-.224-1.103-.064.025-.344 1.1.118.023-.222-1.1-.118.054-.397.368.064-.02.118.006.042c.008.026.025.042.05.046.032.005.09-.033.178-.115.087-.082.134-.141.14-.176.006-.04-.008-.069-.042-.086-.005-.002-.022-.006-.05-.011l-.593-.103.064-.333 1.082.232.045-.22-1.082-.232.192-.8.559.15c.021.028.036.05.045.068.027.055.034.108.02.16-.028.112-.107.15-.236.116-.084-.023-.127-.084-.13-.184-.001-.032.005-.079.02-.141l-.18.001c-.018.1-.023.176-.017.228.02.16.107.26.26.3.105.03.2.02.283-.028.082-.048.138-.126.165-.234.013-.049.014-.1.005-.156-.003-.018-.008-.041-.017-.071l.292.078.054-.214-.556-.149c-.021-.02-.035-.034-.04-.041-.053-.066-.072-.13-.055-.195.025-.098.095-.132.21-.1.073.018.14.072.205.159.02.027.044.069.073.125l.155-.127c-.039-.071-.073-.125-.103-.163-.09-.112-.185-.182-.286-.209-.09-.024-.176-.012-.256.035-.08.048-.132.118-.156.211-.015.06-.014.12.003.178.005.016.016.039.031.069l-.293-.079.21-.766zM9.327 9.797l.112-.12-.12-.118-.395.421-.467.548-.3.375-.345.464.133.103.116-.155.374.292c.013.034.024.087.03.16.013.13-.01.237-.066.322-.044.064-.097.106-.16.126-.022.007-.05.01-.083.01.06-.09.081-.19.063-.304-.019-.114-.07-.2-.156-.261-.088-.063-.186-.084-.291-.064-.107.02-.19.076-.251.166-.045.068-.067.138-.065.21 0 .083.033.147.095.191.096.068.194.062.294-.019.04-.031.067-.06.078-.087l-.117-.083c-.015.022-.035.036-.061.043-.026.008-.05.004-.071-.011-.053-.038-.059-.087-.018-.148.065-.096.155-.104.269-.023.067.047.1.11.103.189.003.07-.02.14-.067.212-.02.028-.05.064-.093.11l-.012.012-.06-.037-.187.317.203-.018.108-.185c.068.023.145.029.232.014.154-.027.28-.112.376-.255.093-.138.133-.278.12-.42l.292.228.132-.178-.88-.687.18-.233.859.717.137-.172-.86-.717.102-.128.434-.505.132-.14.214.21-.43.5c-.01.02-.015.035-.017.045-.006.035.004.064.031.089.03.027.104.042.221.045.118.002.19-.01.215-.04.03-.036.03-.069 0-.097l-.14-.125.249-.29.455.449.15-.161-.797-.787zm-1.234 3.114c-.067.013-.13.024-.19.033-.043.006-.096.011-.158.016-.061.004-.093.006-.094.005l.023-.06c.014-.044.02-.08.019-.11-.003-.068-.04-.124-.113-.17l-.268-.164.104-.179-.142-.087-.49.837-.264.514-.4.883.15.072.226-.496.254.121c.018.009.032.018.042.03.024.026.028.058.01.096-.014.032-.06.053-.14.062-.02.002-.057.003-.11.003l.025.198c.051-.003.1-.007.146-.013.207-.022.43-.061.667-.117l.155-.038-.042-.21-.095.03c-.064.02-.126.038-.184.053-.043.011-.095.022-.156.034-.06.01-.092.016-.093.015.008-.025.013-.046.017-.062.009-.045.011-.082.007-.111-.01-.067-.053-.12-.13-.156l-.283-.135.082-.18.089-.171.314.17-.15.328.2-.04.095-.21.517.28.102-.199-.976-.528.075-.146h-.002l.268-.458.242.149c.016.01.029.02.038.033.021.03.021.062.001.097-.018.03-.066.046-.146.047-.02 0-.057-.004-.11-.01l.005.2.147.003c.208 0 .434-.015.675-.045l.158-.02-.02-.215c-.044.01-.077.017-.097.02zm-1.576.13l-.205-.118-.123.227.205.117.123-.227zM12.37 8.133c-.03.043-.06.077-.093.1-.056.042-.112.062-.167.06-.06 0-.11-.03-.15-.086-.017-.025-.029-.05-.034-.078-.002-.007-.003-.015 0-.025l.477-.031c-.012.024-.023.044-.033.06zm-.969.345l-.274.243-.252-.299.155-.137.136-.111.235.304zm2.303-.546c-.02 0-.05-.001-.088-.004l-.073-.006c-.043-.003-.07-.006-.08-.008.053-.021.092-.097.114-.227.017-.092.002-.18-.045-.262-.073-.131-.164-.165-.274-.1-.028.017-.063.047-.104.092-.04.044-.071.072-.09.083-.03.017-.082.009-.159-.026-.03-.013-.048-.026-.055-.04-.013-.023-.008-.041.014-.055l.408-.24-.158-.282.214-.126-.083-.148-.26.152c-.031-.01-.06-.021-.084-.032-.083-.042-.14-.094-.172-.157-.049-.098-.02-.175.086-.231.028-.015.052-.024.074-.027h.023l-.058-.117c-.06.01-.113.027-.161.052-.16.084-.2.201-.125.353.036.071.101.132.197.184.028.014.062.029.107.042-.628.366-1.685 1.072-2.49 1.832l.11.129.223-.199.252.3-.08.07-.023.038c-.01.028-.007.053.011.075.026.03.1.047.223.051.123.005.2-.006.23-.033.034-.03.033-.067-.003-.11l-.09-.105.27-.238.348.45.003-.003c-.001.007-.004.013-.006.02-.002.018-.003.035-.001.051l.178.027c-.002-.014-.002-.025-.001-.033.005-.046.024-.084.057-.113.071-.066.128-.07.17-.013.004.006.008.016.014.03.04.098.005.188-.102.27-.08.062-.17.09-.27.087-.032 0-.072-.009-.122-.024l-.018.167c.07.014.127.022.168.022.131-.001.248-.04.351-.12.096-.072.16-.153.195-.24.04-.105.027-.203-.04-.296-.052-.072-.12-.11-.202-.114-.083-.004-.16.021-.231.075-.006.004-.01.01-.015.013l-.644-.833.732-.542.31.483-.444.033c.004-.016.01-.03.016-.042.02-.033.048-.062.083-.088.028-.02.06-.04.095-.056l.042-.018-.1-.113c-.015.004-.03.01-.043.018-.036.018-.072.04-.106.064-.093.068-.154.15-.183.246-.03.106-.014.205.05.298.064.091.147.143.25.154.103.01.199-.016.288-.081.053-.04.102-.094.146-.163.01-.015.02-.034.03-.056l.172.268.183-.123-.606-.947.111-.075.002.003.577-.34.08.144-.356.21c-.033.019-.054.045-.065.08-.011.033-.007.067.012.101.037.066.112.119.226.158.129.045.236.042.322-.008.011-.007.029-.023.052-.046.04-.042.068-.068.085-.078.033-.02.06-.009.083.031.05.088.047.167-.008.236-.034.043-.062.07-.083.083-.012.007-.022.009-.03.005-.037-.016-.068-.026-.093-.031-.07-.014-.126-.008-.17.018-.034.02-.058.048-.071.083-.013.036-.01.071.01.107.026.046.067.072.122.078.056.006.106-.006.152-.037l.084-.05c.011.004.037.01.076.02.08.019.172.036.279.05.053.008.105.013.158.014l.007-.197-.11.003zM5.814 26.97c-.063.055-.11.087-.141.098-.05.018-.096.017-.135-.005-.04-.021-.068-.058-.086-.11-.04-.12-.001-.238.119-.356.038-.038.102-.085.192-.14l.147.394c-.003.027-.035.067-.096.12zm-.123-1.507c-.014.014-.032.034-.053.06l-.09-.357.572-.152c.03.02.054.039.073.057.056.054.094.114.113.179.027.09.017.165-.03.224-.017.02-.043.04-.08.062-.028-.057-.054-.095-.076-.116-.074-.07-.17-.086-.287-.049-.047.015-.094.045-.142.092zm2.401 3.676l-.142.098-.161-.246.45-.283-.114-.191-.943.59-.144-.254.96-.56-.108-.194-.96.56-.315-.61.25-.13c.025-.01.041-.014.05-.014.035-.003.061.012.077.045.031.062.026.134-.014.217-.011.024-.034.061-.068.11l.173.101c.022-.039.037-.066.047-.081.15-.26.27-.498.356-.711l.069-.174-.189-.084c-.01.038-.022.076-.036.115-.028.08-.053.147-.075.198-.022.052-.046.102-.072.152l-.045.08c-.021-.038-.035-.061-.04-.068-.085-.127-.186-.16-.303-.098l-.279.145-.396-.925.195-.08.211.483c.03.067.077.11.144.128.067.02.134.013.2-.017.107-.049.205-.169.297-.359.029-.06.064-.15.105-.268l-.177-.085c.01.023-.014.099-.07.229-.067.152-.145.248-.235.29-.043.02-.08.017-.112-.008-.008-.006-.019-.02-.033-.043l-.18-.411.681-.279-.08-.208-1.027.42-.118-.318 1.043-.373-.072-.211-1.043.373-.147-.454c.006-.028.028-.057.065-.088.037-.032.07-.052.1-.061.117-.037.198.023.245.179l.005.026.007.025c.143-.044.243-.125.301-.24.058-.116.065-.247.021-.394-.015-.05-.044-.107-.088-.167-.012-.017-.027-.035-.043-.054l.304-.081-.055-.217-1.07.285-.04-.16-.162.044v.003s.244.973.402 1.418l.001.003c-.044.031-.09.062-.137.092-.244.2-.322.431-.232.693.033.099.084.169.15.209.074.043.157.048.25.014.045-.015.094-.045.147-.088.05-.041.091-.089.111-.126l.009.023s.195.421.412.919c.246.563.848 1.561.848 1.561l.142-.09-.099-.164.346-.217.166.252-.3.207c-.065.045-.1.106-.107.183-.005.07.016.139.061.208.1.15.213.181.343.092.024-.017.044-.036.058-.056.006-.006.013-.016.02-.03l-.085-.131-.009.015c-.015.023-.033.042-.057.058-.052.036-.094.028-.128-.023-.037-.056-.03-.102.023-.138l.298-.206.084.128c.03.045.065.052.106.024.028-.02.053-.1.075-.242.023-.142.025-.226.007-.255-.031-.047-.066-.057-.105-.03zM21.556 33.98l.008-.426.419.012-.017.422-.41-.009zm-.796-.014l-.41.006-.005-.425.416-.002-.001.421zm-2.091.1c-.045.05-.104.098-.179.142-.043.025-.078.039-.104.041-.041.003-.063-.02-.067-.066l-.04-.549.41-.029.022.407-.042.054zm3.525.698l.046-1.187.291.011-.112-.24c-.811-.065-3.6-.032-4.674.09-.002 0 .139.227.139.227l.138-.01.03.415.015.073c.015.054.042.097.079.128.103.09.216.135.339.138.075-.006.141-.026.199-.06l.043-.031.016.295.267.164-.064-1.186.49-.022.01.282-.008.024c-.018.04-.054.061-.108.063-.044-.053-.089-.075-.133-.063-.053.014-.08.05-.077.11.002.048.019.094.051.138l.07.096.438.529.113-.113-.346-.404.06-.02c.09-.04.15-.098.184-.176.006-.012.01-.028.016-.048l-.016-.427.4-.009.006.425h-.052l-.046.016c-.029.017-.04.043-.036.081.006.042.046.106.12.193.073.087.13.133.168.138.058.007.092-.018.103-.076.002-.01.002-.023.002-.039v-.08l.404-.007-.002.35.257.18.005-1.186.29.003-.008.425h-.052l-.046.013c-.03.015-.043.042-.04.08.005.041.043.107.114.196.07.09.125.138.163.145.058.01.093-.015.106-.073.002-.01.003-.022.003-.039l.002-.08.406.008-.013.35.25.19z"/>
        <path fill="#5D6585" d="M22.291 34.838c-.053-.057-.11-.09-.167-.103-.058-.007-.123-.011-.196-.014l.092.214c.008-.005.014-.007.02-.007.024-.003.055-.002.091.002.023.002.047.008.074.017.073.023.16.1.262.23.024.032.057.076.096.133l.053-.046-.15-.203c-.078-.108-.137-.183-.175-.223M27.864 35.816c-.036-.07-.081-.118-.134-.146-.053-.023-.114-.046-.184-.07l.032.231c.008-.002.015-.002.02 0 .024.005.053.014.087.029.021.009.043.021.067.037.064.042.127.14.19.294.015.038.035.09.058.155l.06-.029-.087-.237c-.048-.127-.084-.215-.11-.264"/>
        <path fill="#5D6585" d="M27.719 34.848l-.448-.1.087-.416.463.122-.102.394zm-1.426-.304c-.038.026-.072.047-.102.06-.09.037-.182.046-.275.027-.109-.022-.175-.071-.2-.147-.004-.01-.005-.026-.005-.047.062-.007.11-.014.14-.022.129-.032.201-.089.217-.17.008-.041.004-.092-.012-.152-.004-.017-.013-.04-.024-.071l.365.084-.104.438zm-1.337-.248c-.03.025-.06.045-.085.058-.087.045-.178.061-.272.05-.11-.014-.18-.058-.21-.132-.004-.01-.007-.025-.008-.046.061-.012.108-.023.138-.033.126-.043.194-.105.204-.188.005-.041-.003-.091-.023-.15-.006-.016-.016-.04-.03-.07l.354.051-.068.46zm-1.166-.738c.064.006.092.048.084.125-.008.092-.072.132-.191.12-.007-.008-.011-.015-.013-.019-.016-.033-.023-.07-.02-.107.009-.088.055-.128.14-.12zm4.519.796c-.85-.257-2.508-.638-3.04-.719-.003 0-.048-.197-.048-.197-.018-.08-.03-.134-.038-.161-.064-.248-.171-.386-.322-.413-.011-.002-.027-.004-.046-.005l.017.264.012.002.017.003c.118.021.2.11.246.268l.066.225c-.232-.046-.731-.115-1.1-.147-.002 0 .092.249.092.249l.36.045.016.02c.018.03.025.058.022.083-.005.044-.057.078-.156.104-.024.007-.09.02-.2.038.008.067.014.113.019.14.007.045.016.085.027.122-.028.02-.053.037-.073.048-.135.076-.251.11-.349.1-.148-.015-.217-.075-.207-.183.003-.035.023-.063.06-.083.012-.006.03-.013.054-.018l.33.032-.087-.208s-.078-.004-.133-.01c-.054-.008-.102-.058-.102-.058.019 0 .034 0 .046.002.152-.004.233-.06.243-.17.006-.07-.016-.131-.068-.187-.051-.055-.111-.085-.18-.092-.201-.02-.308.047-.322.2-.002.025-.002.046 0 .062.007.05.037.108.09.173.015.02.04.046.074.079-.035.017-.06.031-.075.044-.048.04-.076.093-.081.156-.012.12.034.23.135.33.09.087.183.134.281.144.093.009.181-.005.266-.04.026-.011.057-.03.093-.054l.02-.22.03.077c.071.145.185.227.343.247.088.011.178 0 .268-.031l-.032.22.23.215.172-1.174.61.116.014.022c.016.03.02.06.016.085-.008.042-.063.073-.163.09-.025.006-.092.013-.203.022l.008.141c.01.102.028.185.055.251.06.15.167.241.323.273.09.018.182.014.278-.012l-.054.222.208.236.276-1.154.463.11-.088.416-.05-.012-.05.005c-.03.01-.048.033-.052.07-.003.042.022.114.074.216.053.102.097.16.133.175.056.02.095.003.118-.051.004-.01.007-.022.01-.037l.017-.08.43.094-.1.348.197.247.308-1.14.303.086-.051-.26zM17.043 35.041c-.06-.048-.12-.074-.18-.077-.058.002-.123.006-.196.014l.121.198c.007-.006.013-.009.018-.009.024-.006.055-.01.091-.01.023-.002.048 0 .076.005.075.012.172.075.29.19.03.027.068.066.115.116l.045-.053-.175-.18c-.094-.095-.162-.16-.205-.194"/>
        <path fill="#5D6585" d="M16.108 34.312l-.065-.422-.001-.003.424-.06.054.419-.412.066zm.613-.52l.29-.038-.15-.217c-1.762.223-3.078.512-4.462 1.112-.003 0 .196.173.198.172.306-.148.884-.343.884-.343l.04.141-.715.295.023.138c.053-.009.09-.014.113-.015.158-.011.257.033.296.132.015.039.012.079-.01.12-.007.013-.02.03-.036.05-.026-.013-.04-.02-.043-.02-.034-.013-.067-.012-.099.001-.095.04-.125.104-.09.195.02.048.052.08.098.098.072.028.139.025.202-.01l.315.172.059-.13-.244-.134.02-.023c.09-.115.119-.215.086-.3-.03-.073-.084-.132-.163-.176-.014-.008-.035-.018-.066-.031l.326-.135.182.595.298.091-.347-1.133.24-.072.256.975.294.104s-.294-1.152-.3-1.147c.51-.14 1.006-.232 1.006-.232l.047.258-.652.15c-.027.013-.046.023-.056.032-.033.028-.045.065-.035.112.01.04.045.096.108.165.08.088.148.125.203.113.03-.007.054-.023.072-.046.018-.023.021-.05.011-.078-.01-.043-.007-.078.007-.106.004-.007.01-.016.02-.026l.364-.084.09.505.284.128-.211-1.17.318-.049.065.422-.052.008-.044.022c-.026.02-.034.049-.025.085.012.04.06.098.146.173.085.076.147.113.186.113.058-.002.089-.032.091-.09 0-.01 0-.023-.003-.04l-.012-.079.405-.065.044.35.277.143-.15-1.18z"/>
        <text fill="#5D6585" font-family="Montserrat-SemiBold, Montserrat" font-size="20" font-weight="500" letter-spacing=".1">
            <tspan x="50" y="28">IIT BOMBAY</tspan>
        </text>
    </g>
</svg>
